<svg width="180.001" height="66.701" viewBox="0 0 180.001 66.701" xmlns="http://www.w3.org/2000/svg"><g id="svgGroup" stroke-linecap="round" fill-rule="evenodd" font-size="9pt" stroke="#000" stroke-width="0.25mm" fill="#000" style="stroke:#000;stroke-width:0.25mm;fill:#000"><path d="M 54.776 66.323 A 5.102 5.102 0 0 0 55.7 66.4 A 8.869 8.869 0 0 0 56.588 66.353 Q 57.789 66.232 59.3 65.8 A 11.255 11.255 0 0 0 59.817 65.639 A 9.625 9.625 0 0 0 62.95 63.9 A 5.104 5.104 0 0 0 63.205 63.672 A 4.088 4.088 0 0 0 64.5 60.6 A 48.694 48.694 0 0 0 64.447 58.352 A 60.067 60.067 0 0 0 64.15 54.6 A 48.729 48.729 0 0 1 64.027 53.308 Q 63.906 51.841 63.85 50.171 A 91.155 91.155 0 0 1 63.8 47.1 Q 63.8 42 64.45 36.75 A 111.547 111.547 0 0 1 64.62 35.444 A 101.523 101.523 0 0 1 66.2 26.65 A 125.652 125.652 0 0 1 66.512 25.311 Q 67.469 21.294 68.5 18.2 A 10.239 10.239 0 0 1 69.176 16.772 Q 69.587 16.064 70.062 15.587 A 3.077 3.077 0 0 1 72.3 14.6 A 1.922 1.922 0 0 1 73.548 15.014 Q 74.28 15.606 74.555 17.043 A 9.438 9.438 0 0 1 74.7 18.3 Q 75.2 27 76.3 33.95 Q 77.022 38.511 77.83 41.931 A 55.269 55.269 0 0 0 78.7 45.2 Q 79.7 48.4 81.85 51.05 A 6.881 6.881 0 0 0 85.665 53.415 A 10.586 10.586 0 0 0 88.2 53.7 A 10.182 10.182 0 0 0 90.595 53.413 A 12.029 12.029 0 0 0 93.55 52.25 A 8.779 8.779 0 0 0 95.46 50.804 Q 96.282 50 97.066 48.904 A 22.654 22.654 0 0 0 98.5 46.6 A 54.744 54.744 0 0 0 100.32 43.006 A 71.566 71.566 0 0 0 102.25 38.4 Q 104 33.8 105.6 29 Q 107.2 24.2 108.5 20 A 15.558 15.558 0 0 1 108.802 19.019 Q 109.052 18.294 109.349 17.697 A 7.173 7.173 0 0 1 110.05 16.55 A 4.025 4.025 0 0 1 110.326 16.224 A 2.755 2.755 0 0 1 112.4 15.3 A 3.203 3.203 0 0 1 112.761 15.32 Q 113.034 15.351 113.246 15.431 A 1.078 1.078 0 0 1 113.9 16.05 A 2.786 2.786 0 0 1 114.004 16.369 Q 114.14 16.879 114.182 17.653 A 13.886 13.886 0 0 1 114.2 18.4 A 31.482 31.482 0 0 1 114.2 18.507 Q 114.19 21.41 113.65 27.35 Q 113.1 33.4 113.1 40.6 A 102.529 102.529 0 0 0 113.107 41.73 A 113.479 113.479 0 0 0 113.5 49.9 A 67.928 67.928 0 0 0 113.809 52.842 A 57.55 57.55 0 0 0 114.9 58.9 A 23.507 23.507 0 0 0 115.331 60.345 Q 115.714 61.491 116.181 62.444 A 11.521 11.521 0 0 0 117.3 64.3 A 4.801 4.801 0 0 0 120.119 66.105 A 7.618 7.618 0 0 0 121.9 66.3 Q 125.3 66.3 127.95 64.25 A 10.455 10.455 0 0 0 128.461 63.829 Q 129.187 63.191 129.666 62.51 A 4.796 4.796 0 0 0 130.6 59.7 Q 130.6 58.6 129.95 57.7 Q 129.3 56.8 128.5 56.1 A 17.535 17.535 0 0 1 126.331 53.094 A 21.365 21.365 0 0 1 124.45 48.7 A 41.973 41.973 0 0 1 123.832 46.463 A 47.579 47.579 0 0 1 122.65 39.3 A 118.809 118.809 0 0 1 122.413 36.224 A 100.867 100.867 0 0 1 122.2 29.8 Q 122.2 26.9 122.35 24.15 A 362.565 362.565 0 0 0 122.36 23.979 A 333.038 333.038 0 0 0 122.6 18.8 A 144.03 144.03 0 0 0 122.732 16.575 A 124.934 124.934 0 0 0 122.9 10.2 A 33.396 33.396 0 0 0 122.885 9.165 Q 122.745 4.654 121.35 2.45 Q 119.8 0 116.2 0 A 11.569 11.569 0 0 0 115.718 0.01 A 8.814 8.814 0 0 0 109.7 2.55 A 17.666 17.666 0 0 0 107.539 5.128 A 21.811 21.811 0 0 0 105.45 8.95 Q 103.8 12.8 102.5 16.6 Q 101.4 20.1 99.95 24.35 Q 98.5 28.6 97 32.4 A 82.136 82.136 0 0 1 96.935 32.565 Q 95.472 36.248 94.2 38.4 A 7.967 7.967 0 0 1 93.714 39.141 Q 93.298 39.701 92.842 40.072 A 3.014 3.014 0 0 1 90.9 40.8 A 2.192 2.192 0 0 1 89.425 40.247 Q 89.065 39.937 88.766 39.452 A 5.909 5.909 0 0 1 88.3 38.5 A 18.256 18.256 0 0 1 88.086 37.97 Q 87.435 36.285 86.819 33.797 A 72.032 72.032 0 0 1 86.2 31.05 Q 85.2 26.2 84.4 20.3 Q 83.6 14.4 83 8.6 A 21.945 21.945 0 0 0 82.964 8.205 Q 82.508 3.723 80.4 1.95 Q 78.2 0.1 75.4 0.1 Q 71.6 0.1 68.75 2.85 A 16.087 16.087 0 0 0 67.311 4.448 Q 65.328 6.954 63.7 10.8 A 89.156 89.156 0 0 0 63.55 11.174 Q 62.103 14.789 60.25 20.3 A 129.565 129.565 0 0 0 58.837 24.777 A 154.84 154.84 0 0 0 56.7 32.8 Q 54.9 40.7 53.65 48.7 A 130.088 130.088 0 0 0 53.323 50.915 Q 52.87 54.183 52.64 57.131 A 74.131 74.131 0 0 0 52.4 62.9 Q 52.4 64.2 53.1 65.3 A 2.084 2.084 0 0 0 53.897 66.029 Q 54.277 66.231 54.776 66.323 Z M 12.368 66.134 A 29.056 29.056 0 0 0 18.2 66.7 Q 26 66.7 31.85 63.45 A 28.564 28.564 0 0 0 32.926 62.822 A 23.899 23.899 0 0 0 40.95 54.9 Q 44.2 49.6 44.2 43.5 A 21.994 21.994 0 0 0 44.14 41.843 Q 43.721 36.303 40.4 33.55 A 18.629 18.629 0 0 0 38.219 32.002 Q 36.477 30.938 34.3 30.068 A 39.174 39.174 0 0 0 29.8 28.6 Q 19.8 26.2 15.95 24.05 A 12.514 12.514 0 0 1 15.151 23.565 Q 14.189 22.929 13.53 22.21 A 5.064 5.064 0 0 1 12.1 18.7 Q 12.1 16.661 13.608 14.993 A 9.249 9.249 0 0 1 15.15 13.65 Q 18.2 11.5 23.1 11.5 Q 25.7 11.5 29.15 12.35 A 30.19 30.19 0 0 1 31.243 12.945 A 25.336 25.336 0 0 1 35.4 14.7 A 13.915 13.915 0 0 0 35.91 14.957 Q 37.255 15.6 38.1 15.6 Q 39.2 15.6 40.7 14.75 Q 42.2 13.9 43.3 12.4 A 5.55 5.55 0 0 0 44.052 10.992 A 6.131 6.131 0 0 0 44.4 8.9 Q 44.4 6.3 42.25 4.5 A 10.726 10.726 0 0 0 41.329 3.812 Q 40.288 3.115 38.977 2.563 A 20.412 20.412 0 0 0 36.45 1.7 A 26.845 26.845 0 0 0 33.113 1.017 A 33.664 33.664 0 0 0 28.4 0.7 A 32.258 32.258 0 0 0 24.464 0.933 A 25.389 25.389 0 0 0 17.8 2.65 A 29.06 29.06 0 0 0 15.742 3.598 A 24.336 24.336 0 0 0 9.8 7.8 A 25.663 25.663 0 0 0 8.619 9.023 A 21.83 21.83 0 0 0 4.8 14.85 A 21.872 21.872 0 0 0 4.402 15.814 A 18.731 18.731 0 0 0 3.1 22.6 A 22.287 22.287 0 0 0 3.1 22.608 Q 3.102 27.703 5.85 30.75 A 17.033 17.033 0 0 0 8.438 33.084 A 19.952 19.952 0 0 0 12.85 35.5 Q 17.1 37.2 21.7 38.3 A 95.444 95.444 0 0 1 22.261 38.438 Q 28.06 39.878 31.4 41.5 A 7.949 7.949 0 0 1 32.253 41.979 Q 33.809 42.988 34.451 44.546 A 6.394 6.394 0 0 1 34.9 47 Q 34.9 51 31.15 53.35 Q 27.4 55.7 21.5 55.7 Q 17 55.7 13.05 54.05 A 33.292 33.292 0 0 1 12.423 53.781 Q 10.756 53.044 9.362 52.203 A 19.154 19.154 0 0 1 6.6 50.2 Q 5.971 49.764 5.364 49.54 A 3.622 3.622 0 0 0 4.1 49.3 A 3.245 3.245 0 0 0 1.951 50.054 A 4.183 4.183 0 0 0 1.1 51.05 A 6.934 6.934 0 0 0 0.311 52.812 A 8.155 8.155 0 0 0 0 55.1 Q 0 58.6 2.5 61.2 A 14.641 14.641 0 0 0 5.835 63.761 A 20.029 20.029 0 0 0 9.15 65.25 A 24.823 24.823 0 0 0 12.368 66.134 Z M 147.968 66.134 A 29.056 29.056 0 0 0 153.8 66.7 Q 161.6 66.7 167.45 63.45 A 28.564 28.564 0 0 0 168.526 62.822 A 23.899 23.899 0 0 0 176.55 54.9 Q 179.8 49.6 179.8 43.5 A 21.994 21.994 0 0 0 179.74 41.843 Q 179.321 36.303 176 33.55 A 18.629 18.629 0 0 0 173.819 32.002 Q 172.077 30.938 169.9 30.068 A 39.174 39.174 0 0 0 165.4 28.6 Q 155.4 26.2 151.55 24.05 A 12.514 12.514 0 0 1 150.751 23.565 Q 149.789 22.929 149.13 22.21 A 5.064 5.064 0 0 1 147.7 18.7 Q 147.7 16.661 149.208 14.993 A 9.249 9.249 0 0 1 150.75 13.65 Q 153.8 11.5 158.7 11.5 Q 161.3 11.5 164.75 12.35 A 30.19 30.19 0 0 1 166.843 12.945 A 25.336 25.336 0 0 1 171 14.7 A 13.915 13.915 0 0 0 171.51 14.957 Q 172.855 15.6 173.7 15.6 Q 174.8 15.6 176.3 14.75 Q 177.8 13.9 178.9 12.4 A 5.55 5.55 0 0 0 179.652 10.992 A 6.131 6.131 0 0 0 180 8.9 Q 180 6.3 177.85 4.5 A 10.726 10.726 0 0 0 176.929 3.812 Q 175.888 3.115 174.577 2.563 A 20.412 20.412 0 0 0 172.05 1.7 A 26.845 26.845 0 0 0 168.713 1.017 A 33.664 33.664 0 0 0 164 0.7 A 32.258 32.258 0 0 0 160.064 0.933 A 25.389 25.389 0 0 0 153.4 2.65 A 29.06 29.06 0 0 0 151.342 3.598 A 24.336 24.336 0 0 0 145.4 7.8 A 25.663 25.663 0 0 0 144.219 9.023 A 21.83 21.83 0 0 0 140.4 14.85 A 21.872 21.872 0 0 0 140.002 15.814 A 18.731 18.731 0 0 0 138.7 22.6 A 22.287 22.287 0 0 0 138.7 22.608 Q 138.702 27.703 141.45 30.75 A 17.033 17.033 0 0 0 144.038 33.084 A 19.952 19.952 0 0 0 148.45 35.5 Q 152.7 37.2 157.3 38.3 A 95.444 95.444 0 0 1 157.861 38.438 Q 163.66 39.878 167 41.5 A 7.949 7.949 0 0 1 167.853 41.979 Q 169.409 42.988 170.051 44.546 A 6.394 6.394 0 0 1 170.5 47 Q 170.5 51 166.75 53.35 Q 163 55.7 157.1 55.7 Q 152.6 55.7 148.65 54.05 A 33.292 33.292 0 0 1 148.023 53.781 Q 146.356 53.044 144.962 52.203 A 19.154 19.154 0 0 1 142.2 50.2 Q 141.571 49.764 140.964 49.54 A 3.622 3.622 0 0 0 139.7 49.3 A 3.245 3.245 0 0 0 137.551 50.054 A 4.183 4.183 0 0 0 136.7 51.05 A 6.934 6.934 0 0 0 135.911 52.812 A 8.155 8.155 0 0 0 135.6 55.1 Q 135.6 58.6 138.1 61.2 A 14.641 14.641 0 0 0 141.435 63.761 A 20.029 20.029 0 0 0 144.75 65.25 A 24.823 24.823 0 0 0 147.968 66.134 Z" vector-effect="non-scaling-stroke"/></g></svg>